<mxfile host="app.diagrams.net" modified="2023-04-05T04:59:40.667Z" agent="Mozilla/5.0 (Windows NT 10.0; Win64; x64) AppleWebKit/537.36 (KHTML, like Gecko) Chrome/110.0.0.0 Safari/537.36 Edg/110.0.1587.41" etag="ES-jM-eeAAw0IHF5TDbp" version="21.1.4" type="github">
  <diagram name="第 1 页" id="fCGHeqEuyfJz1JilKgYz">
    <mxGraphModel dx="1434" dy="788" grid="0" gridSize="10" guides="1" tooltips="1" connect="1" arrows="1" fold="1" page="0" pageScale="1" pageWidth="827" pageHeight="1169" math="0" shadow="0">
      <root>
        <mxCell id="0" />
        <mxCell id="1" parent="0" />
        <mxCell id="Xe_gyclB27jMg93XgCsY-1" value="" style="endArrow=classic;html=1;rounded=0;strokeWidth=5;" parent="1" edge="1">
          <mxGeometry width="50" height="50" relative="1" as="geometry">
            <mxPoint x="324.5" y="140" as="sourcePoint" />
            <mxPoint x="324.5" y="200" as="targetPoint" />
          </mxGeometry>
        </mxCell>
        <mxCell id="Xe_gyclB27jMg93XgCsY-5" value="" style="edgeStyle=orthogonalEdgeStyle;rounded=0;orthogonalLoop=1;jettySize=auto;html=1;" parent="1" source="Xe_gyclB27jMg93XgCsY-2" target="Xe_gyclB27jMg93XgCsY-4" edge="1">
          <mxGeometry relative="1" as="geometry" />
        </mxCell>
        <mxCell id="Xe_gyclB27jMg93XgCsY-8" value="" style="edgeStyle=orthogonalEdgeStyle;rounded=0;orthogonalLoop=1;jettySize=auto;html=1;" parent="1" source="Xe_gyclB27jMg93XgCsY-2" target="Xe_gyclB27jMg93XgCsY-7" edge="1">
          <mxGeometry relative="1" as="geometry" />
        </mxCell>
        <mxCell id="Xe_gyclB27jMg93XgCsY-2" value="&lt;font style=&quot;font-size: 16px;&quot;&gt;a==0&lt;/font&gt;" style="rhombus;whiteSpace=wrap;html=1;" parent="1" vertex="1">
          <mxGeometry x="260" y="200" width="130" height="80" as="geometry" />
        </mxCell>
        <mxCell id="Xe_gyclB27jMg93XgCsY-19" style="edgeStyle=orthogonalEdgeStyle;rounded=0;orthogonalLoop=1;jettySize=auto;html=1;exitX=0.5;exitY=1;exitDx=0;exitDy=0;" parent="1" source="Xe_gyclB27jMg93XgCsY-4" target="Xe_gyclB27jMg93XgCsY-22" edge="1">
          <mxGeometry relative="1" as="geometry">
            <mxPoint x="325" y="510" as="targetPoint" />
          </mxGeometry>
        </mxCell>
        <mxCell id="Xe_gyclB27jMg93XgCsY-4" value="&lt;font style=&quot;font-size: 16px;&quot;&gt;x1=-c/b&lt;/font&gt;" style="whiteSpace=wrap;html=1;" parent="1" vertex="1">
          <mxGeometry x="265" y="310" width="120" height="60" as="geometry" />
        </mxCell>
        <mxCell id="Xe_gyclB27jMg93XgCsY-6" value="T" style="text;html=1;align=center;verticalAlign=middle;resizable=0;points=[];autosize=1;strokeColor=none;fillColor=none;" parent="1" vertex="1">
          <mxGeometry x="325" y="270" width="30" height="30" as="geometry" />
        </mxCell>
        <mxCell id="Xe_gyclB27jMg93XgCsY-11" value="" style="edgeStyle=orthogonalEdgeStyle;rounded=0;orthogonalLoop=1;jettySize=auto;html=1;" parent="1" source="Xe_gyclB27jMg93XgCsY-7" target="Xe_gyclB27jMg93XgCsY-10" edge="1">
          <mxGeometry relative="1" as="geometry" />
        </mxCell>
        <mxCell id="Xe_gyclB27jMg93XgCsY-7" value="&lt;div style=&quot;font-size: 16px;&quot;&gt;&lt;font style=&quot;font-size: 16px;&quot;&gt;d=b*b-4*a*c;&lt;/font&gt;&lt;/div&gt;&lt;div style=&quot;font-size: 16px;&quot;&gt;&lt;font style=&quot;font-size: 16px;&quot;&gt;&amp;nbsp; &amp;nbsp; t=2*a;&lt;/font&gt;&lt;/div&gt;&lt;div style=&quot;font-size: 16px;&quot;&gt;&lt;font style=&quot;font-size: 16px;&quot;&gt;&amp;nbsp; &amp;nbsp; x1=b/t;&lt;/font&gt;&lt;/div&gt;" style="whiteSpace=wrap;html=1;" parent="1" vertex="1">
          <mxGeometry x="475" y="210" width="120" height="60" as="geometry" />
        </mxCell>
        <mxCell id="Xe_gyclB27jMg93XgCsY-9" value="F" style="text;html=1;align=center;verticalAlign=middle;resizable=0;points=[];autosize=1;strokeColor=none;fillColor=none;" parent="1" vertex="1">
          <mxGeometry x="405" y="213" width="30" height="30" as="geometry" />
        </mxCell>
        <mxCell id="Xe_gyclB27jMg93XgCsY-13" value="" style="edgeStyle=orthogonalEdgeStyle;rounded=0;orthogonalLoop=1;jettySize=auto;html=1;" parent="1" source="Xe_gyclB27jMg93XgCsY-10" target="Xe_gyclB27jMg93XgCsY-12" edge="1">
          <mxGeometry relative="1" as="geometry" />
        </mxCell>
        <mxCell id="Xe_gyclB27jMg93XgCsY-15" style="edgeStyle=orthogonalEdgeStyle;rounded=0;orthogonalLoop=1;jettySize=auto;html=1;" parent="1" source="Xe_gyclB27jMg93XgCsY-10" target="Xe_gyclB27jMg93XgCsY-17" edge="1">
          <mxGeometry relative="1" as="geometry">
            <mxPoint x="680" y="410" as="targetPoint" />
          </mxGeometry>
        </mxCell>
        <mxCell id="Xe_gyclB27jMg93XgCsY-10" value="&lt;font style=&quot;font-size: 16px;&quot;&gt;d&amp;gt;=0&lt;br&gt;&lt;/font&gt;" style="rhombus;whiteSpace=wrap;html=1;" parent="1" vertex="1">
          <mxGeometry x="467.5" y="300" width="135" height="80" as="geometry" />
        </mxCell>
        <mxCell id="Xe_gyclB27jMg93XgCsY-20" style="edgeStyle=orthogonalEdgeStyle;rounded=0;orthogonalLoop=1;jettySize=auto;html=1;exitX=0.5;exitY=1;exitDx=0;exitDy=0;" parent="1" source="Xe_gyclB27jMg93XgCsY-12" edge="1">
          <mxGeometry relative="1" as="geometry">
            <mxPoint x="330" y="490" as="targetPoint" />
            <Array as="points">
              <mxPoint x="535" y="490" />
            </Array>
          </mxGeometry>
        </mxCell>
        <mxCell id="Xe_gyclB27jMg93XgCsY-12" value="&lt;font style=&quot;font-size: 16px;&quot;&gt;x2=sqrt(d)/t;&lt;/font&gt;" style="whiteSpace=wrap;html=1;" parent="1" vertex="1">
          <mxGeometry x="475" y="410" width="120" height="60" as="geometry" />
        </mxCell>
        <mxCell id="Xe_gyclB27jMg93XgCsY-14" value="T" style="text;html=1;align=center;verticalAlign=middle;resizable=0;points=[];autosize=1;strokeColor=none;fillColor=none;" parent="1" vertex="1">
          <mxGeometry x="535" y="375" width="30" height="30" as="geometry" />
        </mxCell>
        <mxCell id="Xe_gyclB27jMg93XgCsY-21" style="edgeStyle=orthogonalEdgeStyle;rounded=0;orthogonalLoop=1;jettySize=auto;html=1;exitX=0.5;exitY=1;exitDx=0;exitDy=0;" parent="1" source="Xe_gyclB27jMg93XgCsY-17" edge="1">
          <mxGeometry relative="1" as="geometry">
            <mxPoint x="330" y="490" as="targetPoint" />
            <Array as="points">
              <mxPoint x="680" y="490" />
            </Array>
          </mxGeometry>
        </mxCell>
        <mxCell id="Xe_gyclB27jMg93XgCsY-17" value="&lt;font style=&quot;font-size: 16px;&quot;&gt;x2=sqrt(-d)/t;&lt;/font&gt;" style="rounded=0;whiteSpace=wrap;html=1;" parent="1" vertex="1">
          <mxGeometry x="620" y="410" width="120" height="60" as="geometry" />
        </mxCell>
        <mxCell id="Xe_gyclB27jMg93XgCsY-18" value="F" style="text;html=1;align=center;verticalAlign=middle;resizable=0;points=[];autosize=1;strokeColor=none;fillColor=none;" parent="1" vertex="1">
          <mxGeometry x="605" y="315" width="30" height="30" as="geometry" />
        </mxCell>
        <mxCell id="Xe_gyclB27jMg93XgCsY-23" style="edgeStyle=orthogonalEdgeStyle;rounded=0;orthogonalLoop=1;jettySize=auto;html=1;exitX=1;exitY=0.5;exitDx=0;exitDy=0;" parent="1" source="Xe_gyclB27jMg93XgCsY-22" target="Xe_gyclB27jMg93XgCsY-28" edge="1">
          <mxGeometry relative="1" as="geometry">
            <mxPoint x="550" y="590" as="targetPoint" />
            <Array as="points">
              <mxPoint x="550" y="550" />
            </Array>
          </mxGeometry>
        </mxCell>
        <mxCell id="Xe_gyclB27jMg93XgCsY-24" style="edgeStyle=orthogonalEdgeStyle;rounded=0;orthogonalLoop=1;jettySize=auto;html=1;exitX=0.5;exitY=1;exitDx=0;exitDy=0;" parent="1" source="Xe_gyclB27jMg93XgCsY-22" target="Xe_gyclB27jMg93XgCsY-25" edge="1">
          <mxGeometry relative="1" as="geometry">
            <mxPoint x="324.7931034482758" y="630" as="targetPoint" />
          </mxGeometry>
        </mxCell>
        <mxCell id="Xe_gyclB27jMg93XgCsY-22" value="&lt;font style=&quot;font-size: 16px;&quot;&gt;a == 0&lt;/font&gt;" style="rhombus;whiteSpace=wrap;html=1;" parent="1" vertex="1">
          <mxGeometry x="237.5" y="510" width="175" height="80" as="geometry" />
        </mxCell>
        <mxCell id="Xe_gyclB27jMg93XgCsY-35" style="edgeStyle=orthogonalEdgeStyle;rounded=0;orthogonalLoop=1;jettySize=auto;html=1;exitX=0.5;exitY=1;exitDx=0;exitDy=0;" parent="1" source="Xe_gyclB27jMg93XgCsY-25" edge="1">
          <mxGeometry relative="1" as="geometry">
            <mxPoint x="324.7931034482758" y="840" as="targetPoint" />
          </mxGeometry>
        </mxCell>
        <mxCell id="Xe_gyclB27jMg93XgCsY-25" value="printf(“root=%f\n”, x1);&amp;nbsp;" style="rounded=0;whiteSpace=wrap;html=1;" parent="1" vertex="1">
          <mxGeometry x="265.0031034482758" y="650" width="120" height="60" as="geometry" />
        </mxCell>
        <mxCell id="Xe_gyclB27jMg93XgCsY-26" value="T" style="text;html=1;align=center;verticalAlign=middle;resizable=0;points=[];autosize=1;strokeColor=none;fillColor=none;" parent="1" vertex="1">
          <mxGeometry x="325" y="595" width="30" height="30" as="geometry" />
        </mxCell>
        <mxCell id="Xe_gyclB27jMg93XgCsY-27" value="F" style="text;html=1;align=center;verticalAlign=middle;resizable=0;points=[];autosize=1;strokeColor=none;fillColor=none;" parent="1" vertex="1">
          <mxGeometry x="425" y="525" width="30" height="30" as="geometry" />
        </mxCell>
        <mxCell id="Xe_gyclB27jMg93XgCsY-29" style="edgeStyle=orthogonalEdgeStyle;rounded=0;orthogonalLoop=1;jettySize=auto;html=1;" parent="1" source="Xe_gyclB27jMg93XgCsY-28" target="Xe_gyclB27jMg93XgCsY-30" edge="1">
          <mxGeometry relative="1" as="geometry">
            <mxPoint x="549.9999999999998" y="740" as="targetPoint" />
          </mxGeometry>
        </mxCell>
        <mxCell id="Xe_gyclB27jMg93XgCsY-32" style="edgeStyle=orthogonalEdgeStyle;rounded=0;orthogonalLoop=1;jettySize=auto;html=1;exitX=1;exitY=0.5;exitDx=0;exitDy=0;" parent="1" source="Xe_gyclB27jMg93XgCsY-28" target="Xe_gyclB27jMg93XgCsY-34" edge="1">
          <mxGeometry relative="1" as="geometry">
            <mxPoint x="699.9999999999998" y="700" as="targetPoint" />
          </mxGeometry>
        </mxCell>
        <mxCell id="Xe_gyclB27jMg93XgCsY-28" value="&lt;font style=&quot;font-size: 16px;&quot;&gt;d&amp;gt;0&lt;/font&gt;" style="rhombus;whiteSpace=wrap;html=1;" parent="1" vertex="1">
          <mxGeometry x="485" y="610" width="130" height="80" as="geometry" />
        </mxCell>
        <mxCell id="Xe_gyclB27jMg93XgCsY-36" style="edgeStyle=orthogonalEdgeStyle;rounded=0;orthogonalLoop=1;jettySize=auto;html=1;exitX=0.5;exitY=1;exitDx=0;exitDy=0;" parent="1" source="Xe_gyclB27jMg93XgCsY-30" edge="1">
          <mxGeometry relative="1" as="geometry">
            <mxPoint x="330" y="800" as="targetPoint" />
            <Array as="points">
              <mxPoint x="550" y="800" />
            </Array>
          </mxGeometry>
        </mxCell>
        <mxCell id="Xe_gyclB27jMg93XgCsY-30" value="&lt;div&gt;printf(“real root:\n”);&lt;/div&gt;&lt;div&gt;&amp;nbsp; &amp;nbsp; &amp;nbsp; printf(“root1=%f, root2=%f\n”, x1+x2, x1-x2);&lt;/div&gt;" style="rounded=0;whiteSpace=wrap;html=1;" parent="1" vertex="1">
          <mxGeometry x="489.9999999999998" y="710" width="120" height="60" as="geometry" />
        </mxCell>
        <mxCell id="Xe_gyclB27jMg93XgCsY-31" value="T" style="text;html=1;align=center;verticalAlign=middle;resizable=0;points=[];autosize=1;strokeColor=none;fillColor=none;" parent="1" vertex="1">
          <mxGeometry x="555" y="685" width="30" height="30" as="geometry" />
        </mxCell>
        <mxCell id="Xe_gyclB27jMg93XgCsY-33" value="F" style="text;html=1;align=center;verticalAlign=middle;resizable=0;points=[];autosize=1;strokeColor=none;fillColor=none;" parent="1" vertex="1">
          <mxGeometry x="625" y="625" width="30" height="30" as="geometry" />
        </mxCell>
        <mxCell id="Xe_gyclB27jMg93XgCsY-37" style="edgeStyle=orthogonalEdgeStyle;rounded=0;orthogonalLoop=1;jettySize=auto;html=1;exitX=0.5;exitY=1;exitDx=0;exitDy=0;" parent="1" source="Xe_gyclB27jMg93XgCsY-34" edge="1">
          <mxGeometry relative="1" as="geometry">
            <mxPoint x="330" y="800" as="targetPoint" />
            <Array as="points">
              <mxPoint x="730" y="800" />
            </Array>
          </mxGeometry>
        </mxCell>
        <mxCell id="Xe_gyclB27jMg93XgCsY-34" value="&lt;div&gt;printf(“complex root: \n”);&lt;span style=&quot;background-color: initial;&quot;&gt;&amp;nbsp; printf(“root1=%f+%fi\n”, x1, x2);&lt;/span&gt;&lt;/div&gt;&lt;div&gt;&amp;nbsp; printf(“root2=%f-%fi\n”, x1, x2);&lt;/div&gt;" style="rounded=0;whiteSpace=wrap;html=1;" parent="1" vertex="1">
          <mxGeometry x="669.9999999999998" y="710" width="120" height="60" as="geometry" />
        </mxCell>
        <mxCell id="bDzwS-Y05eEO2P1pFJAW-1" value="1" style="text;html=1;align=center;verticalAlign=middle;resizable=0;points=[];autosize=1;strokeColor=none;fillColor=none;" vertex="1" parent="1">
          <mxGeometry x="211" y="388" width="25" height="26" as="geometry" />
        </mxCell>
        <mxCell id="bDzwS-Y05eEO2P1pFJAW-2" value="2" style="text;html=1;align=center;verticalAlign=middle;resizable=0;points=[];autosize=1;strokeColor=none;fillColor=none;" vertex="1" parent="1">
          <mxGeometry x="442" y="181" width="25" height="26" as="geometry" />
        </mxCell>
        <mxCell id="bDzwS-Y05eEO2P1pFJAW-3" value="3" style="text;html=1;align=center;verticalAlign=middle;resizable=0;points=[];autosize=1;strokeColor=none;fillColor=none;" vertex="1" parent="1">
          <mxGeometry x="505" y="375" width="25" height="26" as="geometry" />
        </mxCell>
        <mxCell id="bDzwS-Y05eEO2P1pFJAW-4" value="4" style="text;html=1;align=center;verticalAlign=middle;resizable=0;points=[];autosize=1;strokeColor=none;fillColor=none;" vertex="1" parent="1">
          <mxGeometry x="653" y="368" width="25" height="26" as="geometry" />
        </mxCell>
        <mxCell id="bDzwS-Y05eEO2P1pFJAW-5" value="5" style="text;html=1;align=center;verticalAlign=middle;resizable=0;points=[];autosize=1;strokeColor=none;fillColor=none;" vertex="1" parent="1">
          <mxGeometry x="297" y="603" width="25" height="26" as="geometry" />
        </mxCell>
        <mxCell id="bDzwS-Y05eEO2P1pFJAW-6" value="6" style="text;html=1;align=center;verticalAlign=middle;resizable=0;points=[];autosize=1;strokeColor=none;fillColor=none;" vertex="1" parent="1">
          <mxGeometry x="517" y="682" width="25" height="26" as="geometry" />
        </mxCell>
        <mxCell id="bDzwS-Y05eEO2P1pFJAW-7" value="7" style="text;html=1;align=center;verticalAlign=middle;resizable=0;points=[];autosize=1;strokeColor=none;fillColor=none;" vertex="1" parent="1">
          <mxGeometry x="730" y="650" width="25" height="26" as="geometry" />
        </mxCell>
      </root>
    </mxGraphModel>
  </diagram>
</mxfile>
